<?xml version="1.0" encoding="UTF-8"?>
<svg id="Layer_2" data-name="Layer 2" xmlns="http://www.w3.org/2000/svg" xmlns:xlink="http://www.w3.org/1999/xlink" viewBox="0 0 53.16 51.78">
  <defs>
    <style>
      .cls-1 {
        fill: #fff;
      }

      .cls-2 {
        fill: url(#linear-gradient);
      }
    </style>
    <linearGradient id="linear-gradient" x1="-5.75" y1="2.79" x2="40.43" y2="35.78" gradientUnits="userSpaceOnUse">
      <stop offset="0" stop-color="#02e172"/>
      <stop offset="1" stop-color="#0482d8"/>
    </linearGradient>
  </defs>
  <g id="Layer_1-2" data-name="Layer 1">
    <g>
      <rect class="cls-2" x="0" y="0" width="53.16" height="51.78" rx="7.88" ry="7.88"/>
      <g>
        <g>
          <path d="m42.48,28.27l-2.03,5.37h-17.49c-1.48,0-2.69-1.2-2.69-2.68s1.2-2.68,2.69-2.68h19.52Z"/>
          <path d="m16.05,30.71c0,3.83,3.12,6.96,6.96,6.96,2.73,0,5.09-1.66,6.1-4.03h5.61c-1.19,5.37-5.99,9.4-11.71,9.4-6.8,0-12.33-5.53-12.33-12.33s5.53-12.33,12.33-12.33h16.06l-2.03,5.37h-14.03c-3.84,0-6.96,3.12-6.96,6.96Z"/>
          <path d="m42.48,8.74l-2.03,5.37h-17.45c-1.48,0-2.68-1.2-2.68-2.68s1.2-2.68,2.68-2.68h19.48Z"/>
        </g>
        <g>
          <path class="cls-1" d="m42.48,28.27l-2.03,5.37h-17.49c-1.48,0-2.69-1.2-2.69-2.68s1.2-2.68,2.69-2.68h19.52Z"/>
          <path class="cls-1" d="m16.05,30.71c0,3.83,3.12,6.96,6.96,6.96,2.73,0,5.09-1.66,6.1-4.03h5.61c-1.19,5.37-5.99,9.4-11.71,9.4-6.8,0-12.33-5.53-12.33-12.33s5.53-12.33,12.33-12.33h16.06l-2.03,5.37h-14.03c-3.84,0-6.96,3.12-6.96,6.96Z"/>
          <path class="cls-1" d="m42.48,8.74l-2.03,5.37h-17.45c-1.48,0-2.68-1.2-2.68-2.68s1.2-2.68,2.68-2.68h19.48Z"/>
        </g>
      </g>
    </g>
  </g>
</svg>