<?xml version="1.0" encoding="UTF-8"?>
<svg id="Layer_2" data-name="Layer 2" xmlns="http://www.w3.org/2000/svg" xmlns:xlink="http://www.w3.org/1999/xlink" viewBox="0 0 53.16 51.78">
  <defs>
    <style>
      .cls-1 {
        fill: #fff;
      }

      .cls-2 {
        fill: url(#linear-gradient);
      }
    </style>
    <linearGradient id="linear-gradient" x1="-5.75" y1="2.79" x2="40.43" y2="35.78" gradientUnits="userSpaceOnUse">
      <stop offset="0" stop-color="#02e172"/>
      <stop offset="1" stop-color="#0482d8"/>
    </linearGradient>
  </defs>
  <g id="Layer_1-2" data-name="Layer 1">
    <rect class="cls-2" x="0" y="0" width="53.16" height="51.78" rx="7.88" ry="7.88"/>
    <g>
      <path class="cls-1" d="m21.67,30.92l-.98,2.69s4.04,0,8.42.01h0c-1.15,2.68-4,4.46-7.18,3.95-3.14-.5-5.6-3.12-5.86-6.29-.34-4.1,2.9-7.54,6.93-7.54h11.25c1.68,0,3.18-1.03,3.77-2.6l1.04-2.76h-16.06c-7.02,0-12.69,5.9-12.31,13,.31,5.78,4.71,10.63,10.43,11.5,6.5.99,12.25-3.29,13.58-9.22h0s0-.04,0-.04c1.09,0,2.1,0,2.96,0,1.67,0,3.17-1.04,3.76-2.6l1.05-2.76h-17.03c-1.7,0-3.21,1.06-3.78,2.65Z"/>
      <path class="cls-1" d="m37.67,14.11c1.67,0,3.17-1.04,3.77-2.6l1.05-2.77h-17.03c-1.69,0-3.21,1.06-3.79,2.65l-.98,2.7c.09.01.19.02.29.02h16.69Z"/>
    </g>
  </g>
</svg>