<?xml version="1.0" encoding="UTF-8"?>
<svg id="Layer_2" data-name="Layer 2" xmlns="http://www.w3.org/2000/svg" xmlns:xlink="http://www.w3.org/1999/xlink" viewBox="0 0 388.03 120.77">
  <defs>
    <style>
      .cls-1 {
        fill: url(#linear-gradient);
      }
    </style>
    <linearGradient id="linear-gradient" x1="7.68" y1="16.74" x2="375.48" y2="125.18" gradientUnits="userSpaceOnUse">
      <stop offset="0" stop-color="#02e172"/>
      <stop offset="1" stop-color="#0482d8"/>
    </linearGradient>
  </defs>
  <g id="Layer_1-2" data-name="Layer 1">
    <g>
      <g>
        <g>
          <path d="m111.78,68.61l-3.68,9.71c-2.08,5.51-7.35,9.15-13.24,9.14-18.94,0-59.38-.03-59.67-.07l3.43-9.46c2.03-5.6,7.35-9.33,13.31-9.33h59.84Z"/>
          <path d="m18.96,79.24c.91,11.14,9.55,20.37,20.59,22.11,11.17,1.76,21.19-4.47,25.22-13.87h19.71c-4.62,20.91-24.84,36.03-47.75,32.53C16.62,116.94,1.16,99.89.06,79.57c-1.34-24.95,18.58-45.69,43.26-45.69h56.45l-3.67,9.72c-2.08,5.51-7.35,9.15-13.24,9.15h-39.53c-14.16,0-25.54,12.08-24.37,26.49Z"/>
          <path d="m111.79,0l-3.68,9.73c-2.08,5.5-7.35,9.15-13.24,9.15h-58.66c-.34,0-.69-.01-1.01-.06l3.44-9.49c2.03-5.6,7.35-9.33,13.3-9.33h59.84Z"/>
        </g>
        <g>
          <path d="m220.22,74.41c-2.52-1.91-5.94-3.14-10.26-3.71-1.86-.25-3.88-.37-6.06-.37-7.29,0-12.73,1.35-16.33,4.08-3.6,2.72-5.42,6.53-5.42,11.41v1.79c0,2.9,2.35,5.25,5.25,5.25h9.31l6.06-2.32h0s2.17-6.01,2.17-6.01h-2.97l-5.26,2.03v-1.03c0-.35.03-.69.07-1,.18-1.32.75-2.38,1.7-3.19,1.18-1,3-1.51,5.42-1.51.98,0,1.87.08,2.66.25,1.14.24,2.05.66,2.76,1.25,1.17,1,1.77,2.39,1.77,4.19v2.08c0,2.9,2.35,5.25,5.25,5.25h9.31v-7.03c0-4.88-1.81-8.69-5.43-11.41Z"/>
          <path d="m219.2,98.23h-8.12v7.34c0,1.79-.58,3.18-1.77,4.18-1.17,1.01-2.98,1.51-5.4,1.51s-4.23-.49-5.42-1.51c-1.18-1-1.77-2.39-1.77-4.18v-.89c0-3.57-2.9-6.46-6.46-6.46h-8.1v7.03c0,4.9,1.81,8.69,5.42,11.42,3.6,2.72,9.05,4.08,16.33,4.08s12.72-1.36,16.33-4.08c3.6-2.73,5.42-6.53,5.42-11.42v-.58c0-3.57-2.9-6.46-6.46-6.46Z"/>
          <path d="m269.44,105.93v14.84h8.21c4.25,0,7.7-3.45,7.7-7.7v-14.84h-8.21c-4.25,0-7.7,3.45-7.7,7.7Z"/>
          <path d="m278.44,9.78h-4.88v8.89h-.44c-1.22-1.65-2.8-3.15-4.71-4.5-1.91-1.34-4.15-2.41-6.68-3.19-2.52-.79-5.35-1.2-8.46-1.2-5.29,0-9.37,1.24-12.27,3.67-2.88,2.45-4.33,5.6-4.33,9.45,0,3.59,1.27,6.26,3.8,8.02,2.53,1.76,6.26,2.63,11.17,2.63h34.95v-15.63c0-4.5-3.64-8.15-8.15-8.15Zm-22.24,16.85c-1.45,0-2.52-.27-3.19-.77-.69-.52-1.04-1.22-1.04-2.12,0-.97.38-1.72,1.14-2.27.76-.56,2.05-.83,3.85-.83s3.59.3,5.53.87c1.97.59,3.8,1.34,5.54,2.22,1.74.9,3.08,1.86,4.01,2.9h-15.84Z"/>
          <path d="m323.98,21.31s-.03-.04-.04-.06c-1.36-1.87-3.07-3.67-5.12-5.43-2.05-1.76-4.36-3.21-6.92-4.33-2.56-1.14-5.36-1.72-8.39-1.72-4.46,0-7.78,1.28-9.95,3.83-2.17,2.55-3.26,5.68-3.26,9.41,0,3.5.93,6.15,2.77,7.91s4.59,2.63,8.2,2.63h25.62v-3.22c0-3.24-1-6.42-2.91-9.02Zm-18.68,5.21c-.9,0-1.59-.27-2.1-.83-.51-.55-.76-1.27-.76-2.17,0-.96.28-1.73.84-2.32.56-.59,1.32-.87,2.28-.87.89,0,1.86.17,2.9.51,1.04.35,2.07.82,3.08,1.41,1.01.58,1.96,1.25,2.86,2.01.89.76,1.63,1.52,2.22,2.27h-11.33Z"/>
          <g>
            <path d="m352.18,86.03c-.01-.51-.07-1.01-.17-1.49-.18-.94-.53-1.81-1.01-2.62h0c-.38-.68-.84-1.27-1.36-1.79-.28-.3-.6-.58-.94-.83-.34-.25-.69-.48-1.07-.69-.25-.13-.52-.25-.77-.37-.27-.11-.53-.21-.82-.3-.82-.25-1.69-.39-2.6-.39h-7.77v12.96c0,3.69,2.99,6.68,6.68,6.68h8.3l.91-5.68.63-3.93v-1.25c0-.1,0-.21-.01-.31Zm3.74-24.44c-2.76-1.83-4.14-4.35-4.14-7.6,0-2.62.8-4.64,2.42-6.09,1.62-1.45,3.77-2.18,6.47-2.18,2.27,0,4.04.42,5.32,1.25.48.31.89.66,1.18,1.06.49.62.73,1.34.73,2.14s-.28,1.51-.83,2.03c-.12.11-.24.21-.37.29-1.13.76-1.88,1.98-2.34,3.26l-1.95,5.35v.03s.03,0,.04.01c.76.27,1.83.51,3.22.72,1.41.2,2.84.31,4.28.31,2.7,0,5.05-.35,7.08-1.03,1.52-.51,2.84-1.2,3.98-2.08,2.7-2.07,4.04-5.21,4.04-9.4,0-5.23-2.15-9.24-6.46-11.99-1.89-1.21-4.09-2.15-6.64-2.83-3.28-.87-7.12-1.31-11.51-1.31-7.78,0-14.07,1.62-18.85,4.85-4.78,3.24-7.18,8.3-7.18,15.19,0,3.71.75,6.91,2.27,9.55,1.52,2.66,3.7,4.85,6.57,6.63,2.86,1.74,6.3,3.21,10.33,4.39,4.04,1.17,8.55,2.12,13.59,2.88v3.73c0,1.65-.59,2.94-1.76,3.87-1.1.89-2.5,1.34-4.21,1.39-.11.01-.23.01-.34.01-.2,0-.39-.01-.59-.01h-8.1c-.01-.51-.07-1.01-.17-1.49-.18-.94-.53-1.81-1.01-2.62l-1.9,4.01v.03c.24.97.55,1.89.91,2.76.42,1.01.94,1.94,1.55,2.8.2.3.41.58.63.84.04.04.07.08.1.13,1.52,1.83,3.5,3.25,5.95,4.25.42.17.86.32,1.31.46h14.83c2.1-.65,3.9-1.62,5.4-2.9,2.43-2.05,3.93-4.8,4.43-8.22.15-.93.23-1.91.23-2.94v-14.98c-6.49-.69-12.16-1.51-17.05-2.43-4.9-.93-8.72-2.31-11.47-4.14Z"/>
            <path d="m352.19,86.34v10.86h-9.85c-3.69,0-6.68-3-6.68-6.68v-12.96h7.77c.91,0,1.79.14,2.6.39.28.08.55.18.82.3.25.11.52.24.77.37.38.21.73.44,1.07.69.32.25.65.53.94.83.52.52.98,1.11,1.36,1.77h0c.46.82.82,1.7,1.01,2.63.1.48.15.98.17,1.49.01.1.01.21.01.31Z"/>
            <rect x="343.3" y="86.03" width="31.08" height="11.17"/>
          </g>
          <path d="m225.04,57.81v12.71c-.37-.33-.76-.64-1.16-.94-2.81-2.12-6.26-3.6-10.43-4.44-3.47-.7-5.95-3.79-5.95-7.33h0c0-4.03-3.58-6.75-8.91-6.75h-14.5c-3.72,0-6.74,3.02-6.74,6.74v33.33c0,2.58-.44,5.06-1.24,7.37-3.06,8.81-11.44,15.15-21.28,15.15h-9.6c-12.43,0-22.51-10.08-22.51-22.51v-57.39h8.77c4.84,0,8.77,3.93,8.77,8.77v48.62c0,2.73,2.24,4.97,4.97,4.97h9.6c2.75,0,4.98-2.23,4.98-4.98v-33.32c0-13.42,10.88-24.29,24.29-24.29h14.49c15.08,0,26.45,10.45,26.45,24.29Z"/>
          <path d="m269.01,64.38l-4.32,11.9c-.79,2.18-2.86,3.63-5.18,3.63h-5.17v26.72c0,2.14-.94,3.85-2.84,5.12-1.89,1.28-5.29,1.91-10.17,1.91-1.68,0-3.19-.16-4.55-.47V39.13h8.8c4.84,0,8.77,3.92,8.77,8.77,0,7.29,0,16.48,0,16.48h14.67Z"/>
          <path d="m286.58,51.02v34.81c0,2-.9,3.67-2.69,5.01-1.8,1.34-5.24,2.01-10.34,2.01-1.68,0-3.19-.16-4.55-.48v-17.25h0v-10.74h0v-25.25h8.8c4.84,0,8.77,3.93,8.77,8.77,0,1.78,0,3.11,0,3.11Z"/>
          <path d="m204.95,84.53l-2.18,6h0c-.51,1.4-1.84,2.33-3.32,2.33h-2.73v-8.33h8.23Z"/>
          <path d="m312.01,39.13v5.44h-6.72c-3.93,0-5.89,2.31-5.89,6.93v13.8c1.31.27,2.45.67,3.41,1.19.97.52,1.71,1.17,2.22,1.97.52.79.78,1.77.78,2.95v9.15c-5,0-9.04,4.13-8.89,9.17.15,4.87,4.39,8.62,9.26,8.62h5.97s0-.02,0-.02c7.47-.22,11.21-2.55,11.21-7.01v-19.5c0-2.41-.79-4.39-2.38-5.94-1.58-1.55-4.03-2.74-7.34-3.57v-2.95c0-1.24.55-1.86,1.65-1.86h.62l4.34,1.03h.93c1.79,0,3.19-.47,4.19-1.4,1-.93,1.5-2.32,1.5-4.19v-5.04c0-4.84-3.93-8.77-8.77-8.77h-6.11Z"/>
        </g>
        <g>
          <path d="m308.14,113.48v1.36c0,3.68-3.36,6.58-7.17,5.8-2.43-.49-4.36-2.49-4.76-4.94-.62-3.81,2.31-7.11,6-7.11h5.93l-.49,1.3c-.31.81-1.09,1.35-1.95,1.35h-3.36c-1.83,0-3.43,1.38-3.55,3.2-.13,2,1.46,3.67,3.42,3.67,1.35,0,2.51-.82,3.01-1.99h-4.35l-.04-.06.47-1.25c.31-.81,1.09-1.35,1.95-1.35h4.88Z"/>
          <g>
            <path d="m324.19,115.95h4.9c.83,0,1.57-.52,1.85-1.3l.49-1.36h-7.3c-.82,0-1.46.74-1.3,1.59.12.63.71,1.06,1.35,1.06Z"/>
            <path d="m324.19,111.25h6.61c.83,0,1.57-.52,1.85-1.3l.49-1.35h-9c-.82,0-1.46.74-1.3,1.59.12.63.71,1.06,1.35,1.06Z"/>
            <path d="m324.14,118.12c-.82,0-1.46.74-1.3,1.59.12.63.71,1.06,1.35,1.06h7.47c.82,0,1.56-.51,1.84-1.28l.49-1.32-.03-.05h-9.82Z"/>
          </g>
          <path d="m315.47,108.6c-.11,0-.24,0-.35.01-1.93.11-3.63,1.13-4.66,2.65-.68.97-1.07,2.15-1.07,3.43,0,3.35,2.73,6.08,6.08,6.08s6.09-2.73,6.09-6.08-2.73-6.09-6.09-6.09Zm0,9.52c-1.89,0-3.42-1.55-3.42-3.43s1.53-3.43,3.42-3.43,3.45,1.53,3.45,3.43-1.55,3.43-3.45,3.43Z"/>
          <g>
            <path d="m351.7,115.95h4.9c.83,0,1.57-.52,1.85-1.3l.49-1.36h-7.3c-.82,0-1.46.74-1.3,1.59.12.63.71,1.06,1.35,1.06Z"/>
            <path d="m351.7,111.25h6.61c.83,0,1.57-.52,1.85-1.3l.49-1.36h-9c-.82,0-1.46.74-1.3,1.59.12.63.71,1.06,1.35,1.06Z"/>
            <path d="m351.65,118.12c-.82,0-1.46.74-1.3,1.59.12.63.71,1.06,1.35,1.06h7.47c.82,0,1.56-.51,1.84-1.28l.49-1.32-.03-.05h-9.82Z"/>
          </g>
          <path d="m342.83,114.26l-1.11,2.22-3.38-6.76c-.35-.7-1.06-1.14-1.84-1.14h-1.69l.02.04.96,1.91,4.74,9.49c.23.45.68.73,1.19.73,0,0,0,0,.01,0,.05,0,.1,0,.15-.01.45-.06.84-.33,1.05-.74l5.63-11.26-.1-.16h-1.51c-.78,0-1.49.44-1.84,1.14l-2.27,4.54Z"/>
          <path d="m388.03,108.69l-.36.99c-.34.94-1.23,1.57-2.23,1.57h-1.67v8.2c0,.82-.74,1.46-1.59,1.3-.63-.12-1.07-.71-1.07-1.35v-8.15h-4.32s.48-1.31.48-1.31c.29-.8,1.06-1.34,1.92-1.34h8.78l.06.09Z"/>
          <path d="m372.92,116.25l-3.47-3.47h0s-3.76-3.76-3.76-3.76c-.26-.26-.6-.39-.95-.39-.19,0-.39.04-.57.13-.49.23-.77.75-.77,1.29v10.73s0,0,0,0h.42c1.23,0,2.23-1,2.23-2.23v-5.41l3.73,3.73h0s3.52,3.52,3.52,3.52c.26.25.59.38.93.38.24,0,.48-.06.7-.19.41-.25.64-.72.64-1.2v-10.77h-.42c-1.23,0-2.23,1-2.23,2.23,0,2.26,0,5.43,0,5.43Z"/>
        </g>
      </g>
      <g>
        <g>
          <path class="cls-1" d="m111.78,68.61l-3.68,9.71c-2.08,5.51-7.35,9.15-13.24,9.14-18.94,0-59.38-.03-59.67-.07l3.43-9.46c2.03-5.6,7.35-9.33,13.31-9.33h59.84Z"/>
          <path class="cls-1" d="m18.96,79.24c.91,11.14,9.55,20.37,20.59,22.11,11.17,1.76,21.19-4.47,25.22-13.87h19.71c-4.62,20.91-24.84,36.03-47.75,32.53C16.62,116.94,1.16,99.89.06,79.57c-1.34-24.95,18.58-45.69,43.26-45.69h56.45l-3.67,9.72c-2.08,5.51-7.35,9.15-13.24,9.15h-39.53c-14.16,0-25.54,12.08-24.37,26.49Z"/>
          <path class="cls-1" d="m111.79,0l-3.68,9.73c-2.08,5.5-7.35,9.15-13.24,9.15h-58.66c-.34,0-.69-.01-1.01-.06l3.44-9.49c2.03-5.6,7.35-9.33,13.3-9.33h59.84Z"/>
        </g>
        <g>
          <path class="cls-1" d="m220.22,74.41c-2.52-1.91-5.94-3.14-10.26-3.71-1.86-.25-3.88-.37-6.06-.37-7.29,0-12.73,1.35-16.33,4.08-3.6,2.72-5.42,6.53-5.42,11.41v1.79c0,2.9,2.35,5.25,5.25,5.25h9.31l6.06-2.32h0s2.17-6.01,2.17-6.01h-2.97l-5.26,2.03v-1.03c0-.35.03-.69.07-1,.18-1.32.75-2.38,1.7-3.19,1.18-1,3-1.51,5.42-1.51.98,0,1.87.08,2.66.25,1.14.24,2.05.66,2.76,1.25,1.17,1,1.77,2.39,1.77,4.19v2.08c0,2.9,2.35,5.25,5.25,5.25h9.31v-7.03c0-4.88-1.81-8.69-5.43-11.41Z"/>
          <path class="cls-1" d="m219.2,98.23h-8.12v7.34c0,1.79-.58,3.18-1.77,4.18-1.17,1.01-2.98,1.51-5.4,1.51s-4.23-.49-5.42-1.51c-1.18-1-1.77-2.39-1.77-4.18v-.89c0-3.57-2.9-6.46-6.46-6.46h-8.1v7.03c0,4.9,1.81,8.69,5.42,11.42,3.6,2.72,9.05,4.08,16.33,4.08s12.72-1.36,16.33-4.08c3.6-2.73,5.42-6.53,5.42-11.42v-.58c0-3.57-2.9-6.46-6.46-6.46Z"/>
          <path class="cls-1" d="m269.44,105.93v14.84h8.21c4.25,0,7.7-3.45,7.7-7.7v-14.84h-8.21c-4.25,0-7.7,3.45-7.7,7.7Z"/>
          <path class="cls-1" d="m278.44,9.78h-4.88v8.89h-.44c-1.22-1.65-2.8-3.15-4.71-4.5-1.91-1.34-4.15-2.41-6.68-3.19-2.52-.79-5.35-1.2-8.46-1.2-5.29,0-9.37,1.24-12.27,3.67-2.88,2.45-4.33,5.6-4.33,9.45,0,3.59,1.27,6.26,3.8,8.02,2.53,1.76,6.26,2.63,11.17,2.63h34.95v-15.63c0-4.5-3.64-8.15-8.15-8.15Zm-22.24,16.85c-1.45,0-2.52-.27-3.19-.77-.69-.52-1.04-1.22-1.04-2.12,0-.97.38-1.72,1.14-2.27.76-.56,2.05-.83,3.85-.83s3.59.3,5.53.87c1.97.59,3.8,1.34,5.54,2.22,1.74.9,3.08,1.86,4.01,2.9h-15.84Z"/>
          <path class="cls-1" d="m323.98,21.31s-.03-.04-.04-.06c-1.36-1.87-3.07-3.67-5.12-5.43-2.05-1.76-4.36-3.21-6.92-4.33-2.56-1.14-5.36-1.72-8.39-1.72-4.46,0-7.78,1.28-9.95,3.83-2.17,2.55-3.26,5.68-3.26,9.41,0,3.5.93,6.15,2.77,7.91s4.59,2.63,8.2,2.63h25.62v-3.22c0-3.24-1-6.42-2.91-9.02Zm-18.68,5.21c-.9,0-1.59-.27-2.1-.83-.51-.55-.76-1.27-.76-2.17,0-.96.28-1.73.84-2.32.56-.59,1.32-.87,2.28-.87.89,0,1.86.17,2.9.51,1.04.35,2.07.82,3.08,1.41,1.01.58,1.96,1.25,2.86,2.01.89.76,1.63,1.52,2.22,2.27h-11.33Z"/>
          <g>
            <path class="cls-1" d="m352.18,86.03c-.01-.51-.07-1.01-.17-1.49-.18-.94-.53-1.81-1.01-2.62h0c-.38-.68-.84-1.27-1.36-1.79-.28-.3-.6-.58-.94-.83-.34-.25-.69-.48-1.07-.69-.25-.13-.52-.25-.77-.37-.27-.11-.53-.21-.82-.3-.82-.25-1.69-.39-2.6-.39h-7.77v12.96c0,3.69,2.99,6.68,6.68,6.68h8.3l.91-5.68.63-3.93v-1.25c0-.1,0-.21-.01-.31Zm3.74-24.44c-2.76-1.83-4.14-4.35-4.14-7.6,0-2.62.8-4.64,2.42-6.09,1.62-1.45,3.77-2.18,6.47-2.18,2.27,0,4.04.42,5.32,1.25.48.31.89.66,1.18,1.06.49.62.73,1.34.73,2.14s-.28,1.51-.83,2.03c-.12.11-.24.21-.37.29-1.13.76-1.88,1.98-2.34,3.26l-1.95,5.35v.03s.03,0,.04.01c.76.27,1.83.51,3.22.72,1.41.2,2.84.31,4.28.31,2.7,0,5.05-.35,7.08-1.03,1.52-.51,2.84-1.2,3.98-2.08,2.7-2.07,4.04-5.21,4.04-9.4,0-5.23-2.15-9.24-6.46-11.99-1.89-1.21-4.09-2.15-6.64-2.83-3.28-.87-7.12-1.31-11.51-1.31-7.78,0-14.07,1.62-18.85,4.85-4.78,3.24-7.18,8.3-7.18,15.19,0,3.71.75,6.91,2.27,9.55,1.52,2.66,3.7,4.85,6.57,6.63,2.86,1.74,6.3,3.21,10.33,4.39,4.04,1.17,8.55,2.12,13.59,2.88v3.73c0,1.65-.59,2.94-1.76,3.87-1.1.89-2.5,1.34-4.21,1.39-.11.01-.23.01-.34.01-.2,0-.39-.01-.59-.01h-8.1c-.01-.51-.07-1.01-.17-1.49-.18-.94-.53-1.81-1.01-2.62l-1.9,4.01v.03c.24.97.55,1.89.91,2.76.42,1.01.94,1.94,1.55,2.8.2.3.41.58.63.84.04.04.07.08.1.13,1.52,1.83,3.5,3.25,5.95,4.25.42.17.86.32,1.31.46h14.83c2.1-.65,3.9-1.62,5.4-2.9,2.43-2.05,3.93-4.8,4.43-8.22.15-.93.23-1.91.23-2.94v-14.98c-6.49-.69-12.16-1.51-17.05-2.43-4.9-.93-8.72-2.31-11.47-4.14Z"/>
            <path class="cls-1" d="m352.19,86.34v10.86h-9.85c-3.69,0-6.68-3-6.68-6.68v-12.96h7.77c.91,0,1.79.14,2.6.39.28.08.55.18.82.3.25.11.52.24.77.37.38.21.73.44,1.07.69.32.25.65.53.94.83.52.52.98,1.11,1.36,1.77h0c.46.82.82,1.7,1.01,2.63.1.48.15.98.17,1.49.01.1.01.21.01.31Z"/>
            <rect class="cls-1" x="343.3" y="86.03" width="31.08" height="11.17"/>
          </g>
          <path class="cls-1" d="m225.04,57.81v12.71c-.37-.33-.76-.64-1.16-.94-2.81-2.12-6.26-3.6-10.43-4.44-3.47-.7-5.95-3.79-5.95-7.33h0c0-4.03-3.58-6.75-8.91-6.75h-14.5c-3.72,0-6.74,3.02-6.74,6.74v33.33c0,2.58-.44,5.06-1.24,7.37-3.06,8.81-11.44,15.15-21.28,15.15h-9.6c-12.43,0-22.51-10.08-22.51-22.51v-57.39h8.77c4.84,0,8.77,3.93,8.77,8.77v48.62c0,2.73,2.24,4.97,4.97,4.97h9.6c2.75,0,4.98-2.23,4.98-4.98v-33.32c0-13.42,10.88-24.29,24.29-24.29h14.49c15.08,0,26.45,10.45,26.45,24.29Z"/>
          <path class="cls-1" d="m269.01,64.38l-4.32,11.9c-.79,2.18-2.86,3.63-5.18,3.63h-5.17v26.72c0,2.14-.94,3.85-2.84,5.12-1.89,1.28-5.29,1.91-10.17,1.91-1.68,0-3.19-.16-4.55-.47V39.13h8.8c4.84,0,8.77,3.92,8.77,8.77,0,7.29,0,16.48,0,16.48h14.67Z"/>
          <path class="cls-1" d="m286.58,51.02v34.81c0,2-.9,3.67-2.69,5.01-1.8,1.34-5.24,2.01-10.34,2.01-1.68,0-3.19-.16-4.55-.48v-17.25h0v-10.74h0v-25.25h8.8c4.84,0,8.77,3.93,8.77,8.77,0,1.78,0,3.11,0,3.11Z"/>
          <path class="cls-1" d="m204.95,84.53l-2.18,6h0c-.51,1.4-1.84,2.33-3.32,2.33h-2.73v-8.33h8.23Z"/>
          <path class="cls-1" d="m312.01,39.13v5.44h-6.72c-3.93,0-5.89,2.31-5.89,6.93v13.8c1.31.27,2.45.67,3.41,1.19.97.52,1.71,1.17,2.22,1.97.52.79.78,1.77.78,2.95v9.15c-5,0-9.04,4.13-8.89,9.17.15,4.87,4.39,8.62,9.26,8.62h5.97s0-.02,0-.02c7.47-.22,11.21-2.55,11.21-7.01v-19.5c0-2.41-.79-4.39-2.38-5.94-1.58-1.55-4.03-2.74-7.34-3.57v-2.95c0-1.24.55-1.86,1.65-1.86h.62l4.34,1.03h.93c1.79,0,3.19-.47,4.19-1.4,1-.93,1.5-2.32,1.5-4.19v-5.04c0-4.84-3.93-8.77-8.77-8.77h-6.11Z"/>
        </g>
        <g>
          <path class="cls-1" d="m308.14,113.48v1.36c0,3.68-3.36,6.58-7.17,5.8-2.43-.49-4.36-2.49-4.76-4.94-.62-3.81,2.31-7.11,6-7.11h5.93l-.49,1.3c-.31.81-1.09,1.35-1.95,1.35h-3.36c-1.83,0-3.43,1.38-3.55,3.2-.13,2,1.46,3.67,3.42,3.67,1.35,0,2.51-.82,3.01-1.99h-4.35l-.04-.06.47-1.25c.31-.81,1.09-1.35,1.95-1.35h4.88Z"/>
          <g>
            <path class="cls-1" d="m324.19,115.95h4.9c.83,0,1.57-.52,1.85-1.3l.49-1.36h-7.3c-.82,0-1.46.74-1.3,1.59.12.63.71,1.06,1.35,1.06Z"/>
            <path class="cls-1" d="m324.19,111.25h6.61c.83,0,1.57-.52,1.85-1.3l.49-1.35h-9c-.82,0-1.46.74-1.3,1.59.12.63.71,1.06,1.35,1.06Z"/>
            <path class="cls-1" d="m324.14,118.12c-.82,0-1.46.74-1.3,1.59.12.63.71,1.06,1.35,1.06h7.47c.82,0,1.56-.51,1.84-1.28l.49-1.32-.03-.05h-9.82Z"/>
          </g>
          <path class="cls-1" d="m315.47,108.6c-.11,0-.24,0-.35.01-1.93.11-3.63,1.13-4.66,2.65-.68.97-1.07,2.15-1.07,3.43,0,3.35,2.73,6.08,6.08,6.08s6.09-2.73,6.09-6.08-2.73-6.09-6.09-6.09Zm0,9.52c-1.89,0-3.42-1.55-3.42-3.43s1.53-3.43,3.42-3.43,3.45,1.53,3.45,3.43-1.55,3.43-3.45,3.43Z"/>
          <g>
            <path class="cls-1" d="m351.7,115.95h4.9c.83,0,1.57-.52,1.85-1.3l.49-1.36h-7.3c-.82,0-1.46.74-1.3,1.59.12.63.71,1.06,1.35,1.06Z"/>
            <path class="cls-1" d="m351.7,111.25h6.61c.83,0,1.57-.52,1.85-1.3l.49-1.36h-9c-.82,0-1.46.74-1.3,1.59.12.63.71,1.06,1.35,1.06Z"/>
            <path class="cls-1" d="m351.65,118.12c-.82,0-1.46.74-1.3,1.59.12.63.71,1.06,1.35,1.06h7.47c.82,0,1.56-.51,1.84-1.28l.49-1.32-.03-.05h-9.82Z"/>
          </g>
          <path class="cls-1" d="m342.83,114.26l-1.11,2.22-3.38-6.76c-.35-.7-1.06-1.14-1.84-1.14h-1.69l.02.04.96,1.91,4.74,9.49c.23.45.68.73,1.19.73,0,0,0,0,.01,0,.05,0,.1,0,.15-.01.45-.06.84-.33,1.05-.74l5.63-11.26-.1-.16h-1.51c-.78,0-1.49.44-1.84,1.14l-2.27,4.54Z"/>
          <path class="cls-1" d="m388.03,108.69l-.36.99c-.34.94-1.23,1.57-2.23,1.57h-1.67v8.2c0,.82-.74,1.46-1.59,1.3-.63-.12-1.07-.71-1.07-1.35v-8.15h-4.32s.48-1.31.48-1.31c.29-.8,1.06-1.34,1.92-1.34h8.78l.06.09Z"/>
          <path class="cls-1" d="m372.92,116.25l-3.47-3.47h0s-3.76-3.76-3.76-3.76c-.26-.26-.6-.39-.95-.39-.19,0-.39.04-.57.13-.49.23-.77.75-.77,1.29v10.73s0,0,0,0h.42c1.23,0,2.23-1,2.23-2.23v-5.41l3.73,3.73h0s3.52,3.52,3.52,3.52c.26.25.59.38.93.38.24,0,.48-.06.7-.19.41-.25.64-.72.64-1.2v-10.77h-.42c-1.23,0-2.23,1-2.23,2.23,0,2.26,0,5.43,0,5.43Z"/>
        </g>
      </g>
    </g>
  </g>
</svg>