<?xml version="1.0" encoding="UTF-8"?>
<svg id="Layer_2" data-name="Layer 2" xmlns="http://www.w3.org/2000/svg" viewBox="0 0 222.09 69.13">
  <defs>
    <style>
      .cls-1 {
        fill: #fff;
      }
    </style>
  </defs>
  <g id="Layer_1-2" data-name="Layer 1">
    <g>
      <g>
        <path class="cls-1" d="m22.12,44.61l-1.97,5.42c.1.01,8.13.02,16.93.03v.02c-2.32,5.37-8.06,8.94-14.44,7.93-6.32-1-11.27-6.28-11.78-12.66-.68-8.24,5.84-15.16,13.94-15.16h22.63c3.37,0,6.39-2.08,7.58-5.23l2.1-5.56H24.8C10.68,19.4-.73,31.26.04,45.55c.63,11.63,9.48,21.38,20.99,23.14,13.09,2,24.65-6.62,27.31-18.55h0s.02-.07.02-.07c2.2,0,4.23,0,5.95,0,3.36,0,6.38-2.09,7.57-5.24l2.11-5.56H29.73c-3.41,0-6.45,2.14-7.61,5.34Z"/>
        <path class="cls-1" d="m54.3,10.8c3.37,0,6.39-2.08,7.58-5.24l2.11-5.57H29.74c-3.41,0-6.45,2.13-7.62,5.34l-1.97,5.43c.19.03.39.04.58.04h33.58Z"/>
      </g>
      <path class="cls-1" d="m126.05,42.59c-1.44-1.1-3.4-1.8-5.87-2.13-1.06-.15-2.22-.21-3.47-.21-4.17,0-7.29.77-9.35,2.34-2.06,1.55-3.1,3.74-3.1,6.53v1.02c0,1.66,1.34,3,3,3h5.33s0,0,0,0h1.56c.85,0,1.61-.53,1.9-1.33h0s.4-1.11.4-1.11l.84-2.33h-4.67c.1-.76.43-1.36.97-1.83.68-.57,1.72-.86,3.1-.86.56,0,1.07.05,1.52.14.65.14,1.18.38,1.58.72.67.57,1.01,1.37,1.01,2.4v1.19c0,1.66,1.34,3,3,3h5.33v-4.03c0-2.79-1.04-4.98-3.11-6.53Zm-13.45,6.95h0s0-.59,0-.59c0-.01,0-.02,0-.03v.62Z"/>
      <path class="cls-1" d="m125.46,56.22h-4.65v4.2c0,1.02-.33,1.82-1.01,2.39-.67.58-1.71.86-3.09.86s-2.42-.28-3.1-.86c-.68-.57-1.01-1.37-1.01-2.39v-.51c0-2.05-1.66-3.7-3.7-3.7h-4.64v4.03c0,2.8,1.04,4.98,3.1,6.54,2.06,1.55,5.18,2.34,9.35,2.34s7.28-.78,9.35-2.34c2.06-1.56,3.1-3.74,3.1-6.54v-.33c0-2.05-1.66-3.7-3.7-3.7Z"/>
      <path class="cls-1" d="m154.22,60.63v8.49h4.7c2.43,0,4.41-1.97,4.41-4.41v-8.49h-4.7c-2.43,0-4.41,1.97-4.41,4.41Z"/>
      <path class="cls-1" d="m159.37,5.6h-2.79v5.09h-.25c-.7-.94-1.6-1.8-2.7-2.58-1.1-.76-2.38-1.38-3.82-1.83-1.44-.45-3.06-.68-4.84-.68-3.03,0-5.36.71-7.02,2.1-1.65,1.4-2.48,3.2-2.48,5.41,0,2.05.72,3.58,2.17,4.59,1.45,1.01,3.58,1.51,6.39,1.51h20v-8.95c0-2.58-2.09-4.66-4.66-4.66Zm-12.73,9.65c-.83,0-1.44-.15-1.83-.44-.39-.3-.6-.7-.6-1.22,0-.56.22-.98.65-1.3.43-.32,1.18-.48,2.21-.48s2.05.17,3.16.5c1.13.34,2.17.77,3.17,1.27,1,.52,1.76,1.06,2.3,1.66h-9.07Z"/>
      <path class="cls-1" d="m187.1,19.21v-1.84c0-1.85-.57-3.67-1.67-5.16,0,0-.02-.02-.02-.03-.78-1.07-1.76-2.1-2.93-3.11-1.18-1.01-2.5-1.84-3.96-2.48-1.47-.65-3.07-.98-4.8-.98-2.55,0-4.45.73-5.69,2.19-1.24,1.46-1.87,3.25-1.87,5.39,0,2.01.53,3.52,1.59,4.53,1.05,1.01,2.63,1.51,4.69,1.51h14.66Zm-13.51-7.07c.32-.34.76-.5,1.3-.5.51,0,1.06.1,1.66.29.6.2,1.18.47,1.76.81.58.33,1.12.72,1.63,1.15.51.43.93.87,1.27,1.3h-6.48c-.52,0-.91-.15-1.2-.48-.29-.31-.43-.72-.43-1.24,0-.55.16-.99.48-1.33Z"/>
      <path class="cls-1" d="m196.47,39.93c1.63,1,3.61,1.84,5.91,2.51,2.31.67,4.9,1.22,7.78,1.65v2.13c0,.94-.34,1.68-1.01,2.21-.63.51-1.43.76-2.4.8h-5.18c0-.29-.04-.58-.1-.85-.1-.54-.31-1.04-.58-1.5h0c-.22-.39-.48-.72-.78-1.02-.16-.17-.35-.33-.54-.48-.19-.15-.39-.27-.61-.39-.14-.07-.3-.14-.44-.21-.15-.06-.31-.12-.47-.17-.47-.14-.97-.23-1.49-.23h-4.45v7.42c0,2.11,1.71,3.83,3.83,3.83h5.64s4.21,0,4.21,0c0,0,0,0,0,0h8.49c1.2-.37,2.23-.93,3.09-1.66,1.39-1.18,2.25-2.75,2.54-4.7.09-.53.13-1.1.13-1.68v-8.58c-3.71-.39-6.96-.86-9.76-1.39-2.8-.53-4.99-1.32-6.56-2.37-1.58-1.05-2.37-2.49-2.37-4.35,0-1.5.46-2.66,1.38-3.49.93-.83,2.16-1.25,3.7-1.25,1.3,0,2.31.24,3.04.72.27.18.51.38.68.6.28.35.42.77.42,1.22s-.16.86-.48,1.16c-.07.06-.14.12-.21.17-.65.43-1.07,1.13-1.34,1.87l-1.11,3.06v.02s.02,0,.02,0c.43.15,1.05.29,1.84.41.81.11,1.63.18,2.45.18,1.55,0,2.89-.2,4.05-.59.87-.29,1.63-.68,2.28-1.19,1.55-1.18,2.31-2.98,2.31-5.38,0-3-1.23-5.29-3.7-6.86-1.08-.69-2.34-1.23-3.8-1.62-1.88-.5-4.07-.75-6.59-.75-4.45,0-8.05.93-10.79,2.78-2.74,1.85-4.11,4.75-4.11,8.7,0,2.13.43,3.95,1.3,5.47.87,1.52,2.12,2.78,3.76,3.79Z"/>
      <path class="cls-1" d="m113.67,29.22c3.05,0,5.1,1.55,5.1,3.86,0,2,1.38,3.79,3.34,4.18,2.42.48,4.41,1.33,6.04,2.56.23.17.45.35.66.54v-7.28c0-7.92-6.51-13.9-15.14-13.9h-8.3c-7.68,0-13.9,6.23-13.9,13.9v19.07c0,1.57-1.28,2.85-2.85,2.85h-5.49c-1.57,0-2.85-1.28-2.85-2.85v-27.83c0-2.77-2.25-5.02-5.02-5.02h-5.02v32.85c0,7.12,5.77,12.89,12.89,12.89h5.49c5.63,0,10.43-3.63,12.18-8.67.46-1.32.71-2.74.71-4.22v-19.08c0-2.13,1.73-3.86,3.86-3.86h8.3Z"/>
      <path class="cls-1" d="m145.57,27.42c0-2.77-2.25-5.02-5.02-5.02h-5.03v42.39c.78.18,1.64.27,2.6.27,2.8,0,4.74-.36,5.82-1.09,1.09-.73,1.63-1.7,1.63-2.93v-15.29h2.96c1.33,0,2.51-.83,2.96-2.08l2.47-6.81h-8.4s0-5.26,0-9.44Z"/>
      <path class="cls-1" d="m159.01,22.4h-5.04v14.45h0v6.15h0v9.88c.78.18,1.64.27,2.6.27,2.92,0,4.89-.38,5.92-1.15,1.02-.77,1.54-1.72,1.54-2.87v-19.92s0-.76,0-1.78c0-2.77-2.25-5.02-5.02-5.02Z"/>
      <path class="cls-1" d="m185.09,41.1c0-1.38-.45-2.51-1.36-3.4-.91-.89-2.31-1.57-4.2-2.04v-1.69c0-.71.32-1.06.95-1.06h.36l2.49.59h.53c1.02,0,1.82-.27,2.4-.8.57-.53.86-1.33.86-2.4v-2.88c0-2.77-2.25-5.02-5.02-5.02h-3.5v3.11h-3.85c-2.25,0-3.37,1.32-3.37,3.96v7.9c.75.16,1.4.38,1.95.68.55.3.98.67,1.27,1.13.3.45.45,1.01.45,1.69v5.24c-2.86,0-5.17,2.36-5.09,5.25.08,2.79,2.51,4.93,5.3,4.93h3.42c4.28-.14,6.42-1.47,6.42-4.02v-11.16Z"/>
      <path class="cls-1" d="m173.05,63.68h1.92c.5,0,.94-.31,1.12-.77l.28-.74h-3.39c-2.11,0-3.79,1.89-3.43,4.07.23,1.4,1.33,2.54,2.72,2.83,2.18.44,4.1-1.22,4.1-3.32v-.78h-2.79c-.5,0-.94.31-1.12.77l-.27.71s.01.02.02.04h2.49c-.29.67-.95,1.14-1.73,1.14-1.13,0-2.04-.95-1.96-2.1.07-1.04.98-1.83,2.03-1.83Z"/>
      <path class="cls-1" d="m184.78,65.76c.07.36.41.61.77.61h2.81c.47,0,.9-.3,1.06-.74l.28-.78h-4.18c-.47,0-.84.42-.74.91Z"/>
      <path class="cls-1" d="m190.4,62.94l.28-.78h-5.15c-.47,0-.84.42-.74.91.07.36.41.61.77.61h3.78c.47,0,.9-.3,1.06-.74Z"/>
      <path class="cls-1" d="m185.53,67.61c-.47,0-.84.43-.74.91.07.36.41.61.77.61h4.27c.47,0,.89-.29,1.06-.73l.28-.76s-.01-.02-.02-.03h-5.62Z"/>
      <path class="cls-1" d="m180.57,62.16c-.06,0-.14,0-.2,0-1.1.06-2.08.64-2.67,1.51-.39.56-.61,1.23-.61,1.96,0,1.92,1.56,3.48,3.48,3.48s3.49-1.56,3.49-3.48-1.56-3.49-3.49-3.49Zm0,5.45c-1.08,0-1.96-.89-1.96-1.96s.88-1.96,1.96-1.96,1.97.88,1.97,1.96-.89,1.96-1.97,1.96Z"/>
      <path class="cls-1" d="m200.53,65.76c.07.36.41.61.77.61h2.81c.47,0,.9-.3,1.06-.74l.28-.78h-4.18c-.47,0-.84.42-.74.91Z"/>
      <path class="cls-1" d="m206.14,62.94l.28-.78h-5.15c-.47,0-.84.42-.74.91.07.36.41.61.77.61h3.78c.47,0,.9-.3,1.06-.74Z"/>
      <path class="cls-1" d="m201.27,67.61c-.47,0-.84.43-.74.91.07.36.41.61.77.61h4.27c.47,0,.89-.29,1.06-.73l.28-.76s-.01-.02-.02-.03h-5.62Z"/>
      <path class="cls-1" d="m198.58,62.15c-.45,0-.85.25-1.05.65l-1.3,2.6-.64,1.27-1.93-3.87c-.2-.4-.61-.65-1.05-.65h-.97v.02s.56,1.1.56,1.1l2.72,5.43c.13.26.39.42.68.42,0,0,0,0,0,0,.03,0,.06,0,.08,0,.26-.03.48-.19.6-.42l3.22-6.44s-.03-.05-.06-.09h-.86Z"/>
      <path class="cls-1" d="m222.06,62.16h-5.03c-.49,0-.93.31-1.1.77l-.27.75s0,0,0,0h2.47v4.66c0,.37.25.7.61.77.48.09.91-.28.91-.74v-4.69h.95c.57,0,1.08-.36,1.28-.9l.21-.57s-.02-.03-.04-.05Z"/>
      <path class="cls-1" d="m213.45,63.43c0,1.29,0,3.11,0,3.11l-1.99-1.99h0s-2.15-2.15-2.15-2.15c-.15-.15-.34-.23-.54-.23-.11,0-.22.02-.33.07-.28.13-.44.43-.44.74v6.14s0,0,0,0h.24c.71,0,1.28-.57,1.28-1.28v-3.1l2.13,2.13,2.02,2.02c.15.14.34.22.53.22.14,0,.27-.04.4-.11.24-.14.37-.41.37-.69v-6.17h-.24c-.71,0-1.28.57-1.28,1.28Z"/>
    </g>
  </g>
</svg>